<?xml version="1.0" encoding="UTF-8"?><svg xmlns="http://www.w3.org/2000/svg" xmlns:xlink="http://www.w3.org/1999/xlink" stroke-dasharray="none" shape-rendering="auto" font-family="'Dialog'" width="351" text-rendering="auto" fill-opacity="1" contentScriptType="text/ecmascript" color-interpolation="auto" color-rendering="auto" preserveAspectRatio="xMidYMid meet" font-size="12" viewBox="0 0 351 191" fill="black" stroke="black" image-rendering="auto" stroke-miterlimit="10" zoomAndPan="magnify" version="1.0" stroke-linecap="square" stroke-linejoin="miter" contentStyleType="text/css" font-style="normal" height="191" stroke-width="1" stroke-dashoffset="0" font-weight="normal" stroke-opacity="1">
<!--Generated by the Batik Graphics2D SVG Generator-->
<defs id="genericDefs"/>
<g>
<defs id="defs1">
<linearGradient x1="10" x2="10" y1="10" gradientUnits="userSpaceOnUse" y2="181" xlink:type="simple" xlink:actuate="onLoad" id="linearGradient1" xlink:show="other" spreadMethod="pad">
<stop stop-opacity="1" stop-color="white" offset="0%"/>
<stop stop-opacity="1" stop-color="white" offset="100%"/>
</linearGradient>
<linearGradient x1="60" x2="60" y1="60" gradientUnits="userSpaceOnUse" y2="104" xlink:type="simple" xlink:actuate="onLoad" id="linearGradient2" xlink:show="other" spreadMethod="pad">
<stop stop-opacity="1" stop-color="white" offset="0%"/>
<stop stop-opacity="1" stop-color="white" offset="100%"/>
</linearGradient>
<linearGradient x1="260" x2="260" y1="60" gradientUnits="userSpaceOnUse" y2="104" xlink:type="simple" xlink:actuate="onLoad" id="linearGradient3" xlink:show="other" spreadMethod="pad">
<stop stop-opacity="1" stop-color="white" offset="0%"/>
<stop stop-opacity="1" stop-color="white" offset="100%"/>
</linearGradient>
<linearGradient x1="260" x2="260" y1="120" gradientUnits="userSpaceOnUse" y2="164" xlink:type="simple" xlink:actuate="onLoad" id="linearGradient4" xlink:show="other" spreadMethod="pad">
<stop stop-opacity="1" stop-color="white" offset="0%"/>
<stop stop-opacity="1" stop-color="white" offset="100%"/>
</linearGradient>
<clipPath clipPathUnits="userSpaceOnUse" id="clipPath1">
<path d="M20 10 C14.4771 10 10 14.4772 10 20 L10 20 L10 170 C10 175.5228 14.4771 180 20 180 C20 180 20 180 20 180 L20 180 L330 180 C335.5228 180 340 175.5228 340 170 L340 170 L340 20 C340 20 340 20 340 20 C340 14.4771 335.5228 10 330 10 C330 10 330 10 330 10 L20 10 L20 10 Z"/>
</clipPath>
<clipPath clipPathUnits="userSpaceOnUse" id="clipPath2">
<path d="M135 12 L217 12 L217 29 L135 29 L135 12 Z"/>
</clipPath>
<clipPath clipPathUnits="userSpaceOnUse" id="clipPath3">
<path d="M10 29 L342 29 L342 182 L10 182 L10 29 Z"/>
</clipPath>
<clipPath clipPathUnits="userSpaceOnUse" id="clipPath4">
<path d="M89 60 C89 60 89 60 89 60 L70 60 C64.4771 60 60 64.4772 60 70 L60 70 L60 93 C60 98.5228 64.4771 103 70 103 C70 103 70 103 70 103 L70 103 L89 103 C94.5228 103 99 98.5228 99 93 L99 93 L99 70 C99 64.4771 94.5228 60 89 60 Z"/>
</clipPath>
<clipPath clipPathUnits="userSpaceOnUse" id="clipPath5">
<path d="M76 62 L86 62 L86 79 L76 79 L76 62 Z"/>
</clipPath>
<clipPath clipPathUnits="userSpaceOnUse" id="clipPath6">
<path d="M59 59 L101 59 L101 105 L59 105 L59 59 Z"/>
</clipPath>
<clipPath clipPathUnits="userSpaceOnUse" id="clipPath7">
<path d="M289 60 C289 60 289 60 289 60 L270 60 C264.4771 60 260 64.4772 260 70 L260 93 C260 98.5228 264.4772 103 270 103 C270 103 270 103 270 103 L270 103 L289 103 C294.5228 103 299 98.5228 299 93 L299 93 L299 70 C299 64.4771 294.5228 60 289 60 Z"/>
</clipPath>
<clipPath clipPathUnits="userSpaceOnUse" id="clipPath8">
<path d="M276 62 L285 62 L285 79 L276 79 L276 62 Z"/>
</clipPath>
<clipPath clipPathUnits="userSpaceOnUse" id="clipPath9">
<path d="M259 59 L301 59 L301 105 L259 105 L259 59 Z"/>
</clipPath>
<clipPath clipPathUnits="userSpaceOnUse" id="clipPath10">
<path d="M270 120 C264.4771 120 260 124.4772 260 130 L260 153 C260 158.5228 264.4772 163 270 163 C270 163 270 163 270 163 L270 163 L289 163 C294.5228 163 299 158.5228 299 153 L299 153 L299 130 C299 124.4771 294.5228 120 289 120 C289 120 289 120 289 120 L270 120 L270 120 Z"/>
</clipPath>
<clipPath clipPathUnits="userSpaceOnUse" id="clipPath11">
<path d="M276 122 L286 122 L286 139 L276 139 L276 122 Z"/>
</clipPath>
<clipPath clipPathUnits="userSpaceOnUse" id="clipPath12">
<path d="M259 119 L301 119 L301 165 L259 165 L259 119 Z"/>
</clipPath>
<clipPath clipPathUnits="userSpaceOnUse" id="clipPath13">
<path d="M10 28 L342 28 L342 182 L10 182 L10 28 Z"/>
</clipPath>
<clipPath clipPathUnits="userSpaceOnUse" id="clipPath14">
<path d="M9 9 L342 9 L342 182 L9 182 L9 9 Z"/>
</clipPath>
<clipPath clipPathUnits="userSpaceOnUse" id="clipPath15">
<path d="M-1 -1 L352 -1 L352 192 L-1 192 L-1 -1 Z"/>
</clipPath>
<clipPath clipPathUnits="userSpaceOnUse" id="clipPath16">
<path d="M159 59 L176 59 L176 76 L159 76 L159 59 Z"/>
</clipPath>
<clipPath clipPathUnits="userSpaceOnUse" id="clipPath17">
<path d="M244 74 L262 74 L262 87 L244 87 L244 74 Z"/>
</clipPath>
</defs>
<g fill="url(#linearGradient1)" font-family="'Segoe UI'" stroke-linejoin="round" stroke="url(#linearGradient1)" stroke-width="0" stroke-miterlimit="0">
<rect x="10" y="10" clip-path="url(#clipPath1)" width="331" height="171" stroke="none"/>
<text x="136" y="26" clip-path="url(#clipPath2)" fill="black" stroke="none" xml:space="preserve">StateMachineA</text>
<rect x="11" y="30" clip-path="url(#clipPath3)" fill="white" width="331" height="151" stroke="none"/>
<rect x="60" y="60" clip-path="url(#clipPath4)" fill="url(#linearGradient2)" width="40" height="44" stroke="none"/>
<text x="77" y="76" clip-path="url(#clipPath5)" fill="black" stroke="none" xml:space="preserve">A</text>
</g>
<g stroke-width="1.1" font-family="'Segoe UI'" stroke-linecap="butt">
<rect x="60" y="60" clip-path="url(#clipPath6)" fill="none" width="39" rx="10" ry="10" height="43"/>
<rect x="260" y="60" clip-path="url(#clipPath7)" fill="url(#linearGradient3)" width="40" height="44" stroke="none"/>
<text xml:space="preserve" x="277" y="76" clip-path="url(#clipPath8)" stroke="none">B</text>
<rect x="260" y="60" clip-path="url(#clipPath9)" fill="none" width="39" rx="10" ry="10" height="43"/>
<rect x="260" y="120" clip-path="url(#clipPath10)" fill="url(#linearGradient4)" width="40" height="44" stroke="none"/>
<text xml:space="preserve" x="277" y="136" clip-path="url(#clipPath11)" stroke="none">C</text>
<rect x="260" y="120" clip-path="url(#clipPath12)" fill="none" width="39" rx="10" ry="10" height="43"/>
<line clip-path="url(#clipPath13)" fill="none" x1="11" x2="342" y1="29" y2="29"/>
<rect x="10" y="10" clip-path="url(#clipPath14)" fill="none" width="330" rx="10" ry="10" height="170"/>
<line clip-path="url(#clipPath15)" fill="none" text-rendering="optimizeLegibility" x1="100" x2="260" y1="80" y2="80"/>
<text x="160" y="73" clip-path="url(#clipPath16)" text-rendering="optimizeLegibility" stroke="none" xml:space="preserve">op</text>
<line clip-path="url(#clipPath17)" fill="none" text-rendering="optimizeLegibility" x1="245" x2="260" y1="85" y2="80"/>
<line clip-path="url(#clipPath17)" fill="none" text-rendering="optimizeLegibility" x1="260" x2="245" y1="80" y2="75"/>
<line clip-path="url(#clipPath15)" fill="none" text-rendering="optimizeLegibility" x1="100" x2="260" y1="80" y2="80"/>
<text x="160" y="73" clip-path="url(#clipPath16)" text-rendering="optimizeLegibility" stroke="none" xml:space="preserve">op</text>
<line clip-path="url(#clipPath17)" fill="none" text-rendering="optimizeLegibility" x1="245" x2="260" y1="85" y2="80"/>
<line clip-path="url(#clipPath17)" fill="none" text-rendering="optimizeLegibility" x1="260" x2="245" y1="80" y2="75"/>
</g>
</g>
</svg>
