<?xml version="1.0" encoding="UTF-8"?><svg xmlns="http://www.w3.org/2000/svg" xmlns:xlink="http://www.w3.org/1999/xlink" stroke-dasharray="none" shape-rendering="auto" font-family="'Dialog'" width="125" text-rendering="auto" fill-opacity="1" contentScriptType="text/ecmascript" color-interpolation="auto" color-rendering="auto" preserveAspectRatio="xMidYMid meet" font-size="12" viewBox="0 0 125 120" fill="black" stroke="black" image-rendering="auto" stroke-miterlimit="10" zoomAndPan="magnify" version="1.0" stroke-linecap="square" stroke-linejoin="miter" contentStyleType="text/css" font-style="normal" height="120" stroke-width="1" stroke-dashoffset="0" font-weight="normal" stroke-opacity="1">
<!--Generated by the Batik Graphics2D SVG Generator-->
<defs id="genericDefs"/>
<g>
<defs id="defs1">
<linearGradient x1="15" x2="15" y1="10" gradientUnits="userSpaceOnUse" y2="110" xlink:type="simple" xlink:actuate="onLoad" id="linearGradient1" xlink:show="other" spreadMethod="pad">
<stop stop-opacity="1" stop-color="white" offset="0%"/>
<stop stop-opacity="1" stop-color="white" offset="100%"/>
</linearGradient>
<clipPath clipPathUnits="userSpaceOnUse" id="clipPath1">
<path d="M15 10 L15 109 L114 109 L114 10 Z"/>
</clipPath>
<clipPath clipPathUnits="userSpaceOnUse" id="clipPath2">
<path d="M61 12 L71 12 L71 29 L61 29 L61 12 Z"/>
</clipPath>
<clipPath clipPathUnits="userSpaceOnUse" id="clipPath3">
<path d="M15 28 L116 28 L116 54 L15 54 L15 28 Z"/>
</clipPath>
<clipPath clipPathUnits="userSpaceOnUse" id="clipPath4">
<path d="M20 55 L96 55 L96 72 L20 72 L20 55 Z"/>
</clipPath>
<clipPath clipPathUnits="userSpaceOnUse" id="clipPath5">
<path d="M15 53 L116 53 L116 85 L15 85 L15 53 Z"/>
</clipPath>
<clipPath clipPathUnits="userSpaceOnUse" id="clipPath6">
<path d="M15 84 L116 84 L116 110 L15 110 L15 84 Z"/>
</clipPath>
<clipPath clipPathUnits="userSpaceOnUse" id="clipPath7">
<path d="M14 9 L116 9 L116 111 L14 111 L14 9 Z"/>
</clipPath>
</defs>
<g fill="url(#linearGradient1)" font-family="'Segoe UI'" stroke-linejoin="round" stroke="url(#linearGradient1)" stroke-width="0" stroke-miterlimit="0">
<rect x="15" y="10" clip-path="url(#clipPath1)" width="100" height="100" stroke="none"/>
<text x="62" y="26" clip-path="url(#clipPath2)" fill="black" stroke="none" xml:space="preserve">A</text>
</g>
<g stroke-width="1.1" font-family="'Segoe UI'" stroke-linecap="butt">
<line clip-path="url(#clipPath3)" fill="none" x1="15" x2="115" y1="29" y2="29"/>
<text xml:space="preserve" x="21" y="69" clip-path="url(#clipPath4)" stroke="none"> + op(): String</text>
<line clip-path="url(#clipPath5)" fill="none" x1="15" x2="115" y1="54" y2="54"/>
<line clip-path="url(#clipPath6)" fill="none" x1="15" x2="115" y1="85" y2="85"/>
<rect x="15" y="10" clip-path="url(#clipPath7)" fill="none" width="99" rx="0" ry="0" height="99"/>
</g>
</g>
</svg>
