<?xml version="1.0" encoding="UTF-8"?><svg xmlns="http://www.w3.org/2000/svg" xmlns:xlink="http://www.w3.org/1999/xlink" stroke-dasharray="none" shape-rendering="auto" font-family="'Dialog'" width="327" text-rendering="auto" fill-opacity="1" contentScriptType="text/ecmascript" color-interpolation="auto" color-rendering="auto" preserveAspectRatio="xMidYMid meet" font-size="12" viewBox="0 0 327 123" fill="black" stroke="black" image-rendering="auto" stroke-miterlimit="10" zoomAndPan="magnify" version="1.0" stroke-linecap="square" stroke-linejoin="miter" contentStyleType="text/css" font-style="normal" height="123" stroke-width="1" stroke-dashoffset="0" font-weight="normal" stroke-opacity="1">
<!--Generated by the Batik Graphics2D SVG Generator-->
<defs id="genericDefs"/>
<g>
<defs id="defs1">
<linearGradient x1="217" x2="217" y1="10" gradientUnits="userSpaceOnUse" y2="110" xlink:type="simple" xlink:actuate="onLoad" id="linearGradient1" xlink:show="other" spreadMethod="pad">
<stop stop-opacity="1" stop-color="white" offset="0%"/>
<stop stop-opacity="1" stop-color="white" offset="100%"/>
</linearGradient>
<linearGradient x1="17" x2="17" y1="10" gradientUnits="userSpaceOnUse" y2="113" xlink:type="simple" xlink:actuate="onLoad" id="linearGradient2" xlink:show="other" spreadMethod="pad">
<stop stop-opacity="1" stop-color="white" offset="0%"/>
<stop stop-opacity="1" stop-color="white" offset="100%"/>
</linearGradient>
<clipPath clipPathUnits="userSpaceOnUse" id="clipPath1">
<path d="M217 10 L217 109 L316 109 L316 10 Z"/>
</clipPath>
<clipPath clipPathUnits="userSpaceOnUse" id="clipPath2">
<path d="M263 12 L273 12 L273 29 L263 29 L263 12 Z"/>
</clipPath>
<clipPath clipPathUnits="userSpaceOnUse" id="clipPath3">
<path d="M217 28 L318 28 L318 56 L217 56 L217 28 Z"/>
</clipPath>
<clipPath clipPathUnits="userSpaceOnUse" id="clipPath4">
<path d="M217 55 L318 55 L318 83 L217 83 L217 55 Z"/>
</clipPath>
<clipPath clipPathUnits="userSpaceOnUse" id="clipPath5">
<path d="M217 82 L318 82 L318 110 L217 110 L217 82 Z"/>
</clipPath>
<clipPath clipPathUnits="userSpaceOnUse" id="clipPath6">
<path d="M216 9 L318 9 L318 111 L216 111 L216 9 Z"/>
</clipPath>
<clipPath clipPathUnits="userSpaceOnUse" id="clipPath7">
<path d="M17 10 L17 112 L116 112 L116 10 Z"/>
</clipPath>
<clipPath clipPathUnits="userSpaceOnUse" id="clipPath8">
<path d="M37 12 L98 12 L98 29 L37 29 L37 12 Z"/>
</clipPath>
<clipPath clipPathUnits="userSpaceOnUse" id="clipPath9">
<path d="M61 28 L74 28 L74 45 L61 45 L61 28 Z"/>
</clipPath>
<clipPath clipPathUnits="userSpaceOnUse" id="clipPath10">
<path d="M17 44 L118 44 L118 68 L17 68 L17 44 Z"/>
</clipPath>
<clipPath clipPathUnits="userSpaceOnUse" id="clipPath11">
<path d="M17 67 L118 67 L118 91 L17 91 L17 67 Z"/>
</clipPath>
<clipPath clipPathUnits="userSpaceOnUse" id="clipPath12">
<path d="M17 90 L118 90 L118 114 L17 114 L17 90 Z"/>
</clipPath>
<clipPath clipPathUnits="userSpaceOnUse" id="clipPath13">
<path d="M16 9 L118 9 L118 114 L16 114 L16 9 Z"/>
</clipPath>
<clipPath clipPathUnits="userSpaceOnUse" id="clipPath14">
<path d="M-1 -1 L328 -1 L328 124 L-1 124 L-1 -1 Z"/>
</clipPath>
<clipPath clipPathUnits="userSpaceOnUse" id="clipPath15">
<path d="M116 64 L134 64 L134 77 L116 77 L116 64 Z"/>
</clipPath>
</defs>
<g fill="url(#linearGradient1)" font-family="'Segoe UI'" stroke-linejoin="round" stroke="url(#linearGradient1)" stroke-width="0" stroke-miterlimit="0">
<rect x="217" y="10" clip-path="url(#clipPath1)" width="100" height="100" stroke="none"/>
<text x="264" y="26" clip-path="url(#clipPath2)" fill="black" stroke="none" xml:space="preserve">A</text>
</g>
<g stroke-width="1.1" font-family="'Segoe UI'" stroke-linecap="butt">
<line clip-path="url(#clipPath3)" fill="none" x1="217" x2="317" y1="29" y2="29"/>
<line clip-path="url(#clipPath4)" fill="none" x1="217" x2="317" y1="56" y2="56"/>
<line clip-path="url(#clipPath5)" fill="none" x1="217" x2="317" y1="83" y2="83"/>
<rect x="217" y="10" clip-path="url(#clipPath6)" fill="none" width="99" rx="0" ry="0" height="99"/>
<rect x="17" y="10" clip-path="url(#clipPath7)" fill="url(#linearGradient2)" width="100" height="103" stroke="none"/>
<text xml:space="preserve" x="38" y="26" clip-path="url(#clipPath8)" stroke="none">«Interface»</text>
<text xml:space="preserve" x="62" y="42" clip-path="url(#clipPath9)" stroke="none">IA</text>
<line clip-path="url(#clipPath10)" fill="none" x1="17" x2="117" y1="45" y2="45"/>
<line clip-path="url(#clipPath11)" fill="none" x1="17" x2="117" y1="68" y2="68"/>
<line clip-path="url(#clipPath12)" fill="none" x1="17" x2="117" y1="91" y2="91"/>
<rect x="17" y="10" clip-path="url(#clipPath13)" fill="none" width="99" rx="0" ry="0" height="102"/>
<line clip-path="url(#clipPath14)" fill="none" text-rendering="optimizeLegibility" x1="217" x2="117" y1="70" y2="70" stroke-dasharray="5,5,5,5,5,5,5,5,5,5"/>
</g>
<g stroke-linecap="butt" fill="white" text-rendering="optimizeLegibility" font-family="'Segoe UI'" stroke-dasharray="5,5,5,5,5,5,5,5,5,5" stroke="white" stroke-width="1.1">
<polygon clip-path="url(#clipPath15)" points=" 117 70 132 65 132 75" stroke="none"/>
<polygon fill="none" stroke-dasharray="none" clip-path="url(#clipPath15)" points=" 117 70 132 65 132 75" stroke="black"/>
</g>
</g>
</svg>
