<?xml version="1.0" encoding="UTF-8" standalone="no"?>
<svg
   xmlns:dc="http://purl.org/dc/elements/1.1/"
   xmlns:cc="http://creativecommons.org/ns#"
   xmlns:rdf="http://www.w3.org/1999/02/22-rdf-syntax-ns#"
   xmlns:svg="http://www.w3.org/2000/svg"
   xmlns="http://www.w3.org/2000/svg"
   xmlns:xlink="http://www.w3.org/1999/xlink"
   xmlns:sodipodi="http://sodipodi.sourceforge.net/DTD/sodipodi-0.dtd"
   xmlns:inkscape="http://www.inkscape.org/namespaces/inkscape"
   width="463.01144"
   contentScriptType="text/ecmascript"
   preserveAspectRatio="xMidYMid meet"
   font-size="12"
   viewBox="0 0 463.01144 151.55"
   stroke-miterlimit="10"
   zoomAndPan="magnify"
   version="1.0"
   contentStyleType="text/css"
   font-style="normal"
   height="151.55"
   font-weight="normal"
   id="svg50"
   sodipodi:docname="model_c.svg"
   style="font-style:normal;font-weight:normal;font-size:12px;font-family:Dialog;color-interpolation:auto;fill:#000000;fill-opacity:1;stroke:#000000;stroke-width:1;stroke-linecap:square;stroke-linejoin:miter;stroke-miterlimit:10;stroke-dasharray:none;stroke-dashoffset:0;stroke-opacity:1;color-rendering:auto;image-rendering:auto;shape-rendering:auto;text-rendering:auto"
   inkscape:version="0.92.2 (5c3e80d, 2017-08-06)">
  <metadata
     id="metadata54">
    <rdf:RDF>
      <cc:Work
         rdf:about="">
        <dc:format>image/svg+xml</dc:format>
        <dc:type
           rdf:resource="http://purl.org/dc/dcmitype/StillImage" />
        <dc:title />
      </cc:Work>
    </rdf:RDF>
  </metadata>
  <sodipodi:namedview
     pagecolor="#ffffff"
     bordercolor="#666666"
     borderopacity="1"
     objecttolerance="10"
     gridtolerance="10"
     guidetolerance="10"
     inkscape:pageopacity="0"
     inkscape:pageshadow="2"
     inkscape:window-width="1920"
     inkscape:window-height="1027"
     id="namedview52"
     showgrid="false"
     fit-margin-top="0"
     fit-margin-left="0"
     fit-margin-right="0"
     fit-margin-bottom="0"
     inkscape:zoom="1.9666667"
     inkscape:cx="145.84799"
     inkscape:cy="75.775004"
     inkscape:window-x="1912"
     inkscape:window-y="-8"
     inkscape:window-maximized="1"
     inkscape:current-layer="svg50" />
  <!--Generated by the Batik Graphics2D SVG Generator-->
  <defs
     id="genericDefs">
    <linearGradient
       x1="10"
       x2="10"
       y1="10"
       gradientUnits="userSpaceOnUse"
       y2="161"
       xlink:type="simple"
       xlink:actuate="onLoad"
       id="linearGradient1-0"
       xlink:show="other"
       spreadMethod="pad">
      <stop
         stop-opacity="1"
         stop-color="white"
         offset="0%"
         id="stop3-0" />
      <stop
         stop-opacity="1"
         stop-color="white"
         offset="100%"
         id="stop5-6" />
    </linearGradient>
    <clipPath
       clipPathUnits="userSpaceOnUse"
       id="clipPath1-3">
      <path
         inkscape:connector-curvature="0"
         d="m 20,10 c -5.5229,0 -10,4.4772 -10,10 v 0 130 c 0,5.5228 4.4771,10 10,10 0,0 0,0 0,0 v 0 h 310 c 5.5228,0 10,-4.4772 10,-10 v 0 -130 c 0,0 0,0 0,0 0,-5.5229 -4.4772,-10 -10,-10 0,0 0,0 0,0 z"
         id="path18" />
    </clipPath>
    <clipPath
       clipPathUnits="userSpaceOnUse"
       id="clipPath2-9">
      <path
         inkscape:connector-curvature="0"
         d="m 135,12 h 82 v 17 h -82 z"
         id="path21" />
    </clipPath>
    <clipPath
       clipPathUnits="userSpaceOnUse"
       id="clipPath3-5">
      <path
         inkscape:connector-curvature="0"
         d="M 10,29 H 342 V 162 H 10 Z"
         id="path24" />
    </clipPath>
    <linearGradient
       x1="60"
       x2="60"
       y1="80"
       gradientUnits="userSpaceOnUse"
       y2="124"
       xlink:type="simple"
       xlink:actuate="onLoad"
       id="linearGradient2"
       xlink:show="other"
       spreadMethod="pad">
      <stop
         stop-opacity="1"
         stop-color="white"
         offset="0%"
         id="stop8" />
      <stop
         stop-opacity="1"
         stop-color="white"
         offset="100%"
         id="stop10" />
    </linearGradient>
    <clipPath
       clipPathUnits="userSpaceOnUse"
       id="clipPath4-0">
      <path
         inkscape:connector-curvature="0"
         d="m 89,80 c 0,0 0,0 0,0 H 70 c -5.5229,0 -10,4.4772 -10,10 v 0 23 c 0,5.5228 4.4771,10 10,10 0,0 0,0 0,0 v 0 h 19 c 5.5228,0 10,-4.4772 10,-10 v 0 -23 C 99,84.4771 94.5228,80 89,80 Z"
         id="path27" />
    </clipPath>
    <clipPath
       clipPathUnits="userSpaceOnUse"
       id="clipPath5-7">
      <path
         inkscape:connector-curvature="0"
         d="M 76,82 H 86 V 99 H 76 Z"
         id="path30" />
    </clipPath>
    <clipPath
       clipPathUnits="userSpaceOnUse"
       id="clipPath6-9">
      <path
         inkscape:connector-curvature="0"
         d="m 59,79 h 42 v 46 H 59 Z"
         id="path33" />
    </clipPath>
    <linearGradient
       x1="260"
       x2="260"
       y1="80"
       gradientUnits="userSpaceOnUse"
       y2="124"
       xlink:type="simple"
       xlink:actuate="onLoad"
       id="linearGradient3"
       xlink:show="other"
       spreadMethod="pad">
      <stop
         stop-opacity="1"
         stop-color="white"
         offset="0%"
         id="stop13" />
      <stop
         stop-opacity="1"
         stop-color="white"
         offset="100%"
         id="stop15" />
    </linearGradient>
    <clipPath
       clipPathUnits="userSpaceOnUse"
       id="clipPath7-4">
      <path
         inkscape:connector-curvature="0"
         d="m 289,80 c 0,0 0,0 0,0 h -19 c -5.5229,0 -10,4.4772 -10,10 v 23 c 0,5.5228 4.4772,10 10,10 0,0 0,0 0,0 v 0 h 19 c 5.5228,0 10,-4.4772 10,-10 v 0 -23 c 0,-5.5229 -4.4772,-10 -10,-10 z"
         id="path36" />
    </clipPath>
    <clipPath
       clipPathUnits="userSpaceOnUse"
       id="clipPath8">
      <path
         inkscape:connector-curvature="0"
         d="m 276,82 h 9 v 17 h -9 z"
         id="path39" />
    </clipPath>
    <clipPath
       clipPathUnits="userSpaceOnUse"
       id="clipPath9">
      <path
         inkscape:connector-curvature="0"
         d="m 259,79 h 42 v 46 h -42 z"
         id="path42" />
    </clipPath>
    <clipPath
       clipPathUnits="userSpaceOnUse"
       id="clipPath10">
      <path
         inkscape:connector-curvature="0"
         d="M 10,28 H 342 V 162 H 10 Z"
         id="path45" />
    </clipPath>
    <clipPath
       clipPathUnits="userSpaceOnUse"
       id="clipPath11">
      <path
         inkscape:connector-curvature="0"
         d="M 9,9 H 342 V 162 H 9 Z"
         id="path48" />
    </clipPath>
    <clipPath
       clipPathUnits="userSpaceOnUse"
       id="clipPath962">
      <path
         inkscape:connector-curvature="0"
         d="m 20,10 c -5.5229,0 -10,4.4772 -10,10 v 0 130 c 0,5.5228 4.4771,10 10,10 0,0 0,0 0,0 v 0 h 310 c 5.5228,0 10,-4.4772 10,-10 v 0 -130 c 0,0 0,0 0,0 0,-5.5229 -4.4772,-10 -10,-10 0,0 0,0 0,0 z"
         id="path960" />
    </clipPath>
    <clipPath
       clipPathUnits="userSpaceOnUse"
       id="clipPath966">
      <path
         inkscape:connector-curvature="0"
         d="m 135,12 h 82 v 17 h -82 z"
         id="path964" />
    </clipPath>
    <clipPath
       clipPathUnits="userSpaceOnUse"
       id="clipPath970">
      <path
         inkscape:connector-curvature="0"
         d="M 10,29 H 342 V 162 H 10 Z"
         id="path968" />
    </clipPath>
    <clipPath
       clipPathUnits="userSpaceOnUse"
       id="clipPath974">
      <path
         inkscape:connector-curvature="0"
         d="m 89,80 c 0,0 0,0 0,0 H 70 c -5.5229,0 -10,4.4772 -10,10 v 0 23 c 0,5.5228 4.4771,10 10,10 0,0 0,0 0,0 v 0 h 19 c 5.5228,0 10,-4.4772 10,-10 v 0 -23 C 99,84.4771 94.5228,80 89,80 Z"
         id="path972" />
    </clipPath>
    <clipPath
       clipPathUnits="userSpaceOnUse"
       id="clipPath978">
      <path
         inkscape:connector-curvature="0"
         d="M 76,82 H 86 V 99 H 76 Z"
         id="path976" />
    </clipPath>
    <clipPath
       clipPathUnits="userSpaceOnUse"
       id="clipPath982">
      <path
         inkscape:connector-curvature="0"
         d="m 59,79 h 42 v 46 H 59 Z"
         id="path980" />
    </clipPath>
    <clipPath
       clipPathUnits="userSpaceOnUse"
       id="clipPath986">
      <path
         inkscape:connector-curvature="0"
         d="m 289,80 c 0,0 0,0 0,0 h -19 c -5.5229,0 -10,4.4772 -10,10 v 23 c 0,5.5228 4.4772,10 10,10 0,0 0,0 0,0 v 0 h 19 c 5.5228,0 10,-4.4772 10,-10 v 0 -23 c 0,-5.5229 -4.4772,-10 -10,-10 z"
         id="path984" />
    </clipPath>
    <clipPath
       clipPathUnits="userSpaceOnUse"
       id="clipPath990">
      <path
         inkscape:connector-curvature="0"
         d="m 276,82 h 9 v 17 h -9 z"
         id="path988" />
    </clipPath>
    <clipPath
       clipPathUnits="userSpaceOnUse"
       id="clipPath994">
      <path
         inkscape:connector-curvature="0"
         d="m 259,79 h 42 v 46 h -42 z"
         id="path992" />
    </clipPath>
    <clipPath
       clipPathUnits="userSpaceOnUse"
       id="clipPath998">
      <path
         inkscape:connector-curvature="0"
         d="M 10,28 H 342 V 162 H 10 Z"
         id="path996" />
    </clipPath>
    <clipPath
       clipPathUnits="userSpaceOnUse"
       id="clipPath1002">
      <path
         inkscape:connector-curvature="0"
         d="M 9,9 H 342 V 162 H 9 Z"
         id="path1000" />
    </clipPath>
    <linearGradient
       inkscape:collect="always"
       xlink:href="#linearGradient1"
       id="linearGradient1086"
       gradientUnits="userSpaceOnUse"
       x1="15"
       y1="10"
       x2="15"
       y2="110"
       spreadMethod="pad" />
    <linearGradient
       inkscape:collect="always"
       xlink:href="#linearGradient1"
       id="linearGradient1088"
       gradientUnits="userSpaceOnUse"
       x1="15"
       y1="10"
       x2="15"
       y2="110"
       spreadMethod="pad" />
    <linearGradient
       inkscape:collect="always"
       xlink:href="#linearGradient1"
       id="linearGradient1090"
       gradientUnits="userSpaceOnUse"
       x1="15"
       y1="10"
       x2="15"
       y2="110"
       spreadMethod="pad" />
    <linearGradient
       x1="15"
       x2="15"
       y1="10"
       gradientUnits="userSpaceOnUse"
       y2="110"
       xlink:type="simple"
       xlink:actuate="onLoad"
       id="linearGradient1152"
       xlink:show="other"
       spreadMethod="pad">
      <stop
         stop-opacity="1"
         stop-color="white"
         offset="0%"
         id="stop3-7" />
      <stop
         stop-opacity="1"
         stop-color="white"
         offset="100%"
         id="stop5-0" />
    </linearGradient>
    <clipPath
       clipPathUnits="userSpaceOnUse"
       id="clipPath1-6">
      <path
         inkscape:connector-curvature="0"
         d="m 15,10 v 99 h 99 V 10 Z"
         id="path8-8" />
    </clipPath>
    <clipPath
       clipPathUnits="userSpaceOnUse"
       id="clipPath2-2">
      <path
         inkscape:connector-curvature="0"
         d="M 61,12 H 71 V 29 H 61 Z"
         id="path11-2" />
    </clipPath>
    <clipPath
       clipPathUnits="userSpaceOnUse"
       id="clipPath3-4">
      <path
         inkscape:connector-curvature="0"
         d="M 15,28 H 116 V 54 H 15 Z"
         id="path14-5" />
    </clipPath>
    <clipPath
       clipPathUnits="userSpaceOnUse"
       id="clipPath4-04">
      <path
         inkscape:connector-curvature="0"
         d="M 20,55 H 58 V 72 H 20 Z"
         id="path17-8" />
    </clipPath>
    <clipPath
       clipPathUnits="userSpaceOnUse"
       id="clipPath5-8">
      <path
         inkscape:connector-curvature="0"
         d="M 15,53 H 116 V 85 H 15 Z"
         id="path20-2" />
    </clipPath>
    <clipPath
       clipPathUnits="userSpaceOnUse"
       id="clipPath6-98">
      <path
         inkscape:connector-curvature="0"
         d="m 15,84 h 101 v 26 H 15 Z"
         id="path23-2" />
    </clipPath>
    <clipPath
       clipPathUnits="userSpaceOnUse"
       id="clipPath7-0">
      <path
         inkscape:connector-curvature="0"
         d="M 14,9 H 116 V 111 H 14 Z"
         id="path26-3" />
    </clipPath>
    <clipPath
       clipPathUnits="userSpaceOnUse"
       id="clipPath909">
      <path
         inkscape:connector-curvature="0"
         d="m 15,10 v 99 h 99 V 10 Z"
         id="path907" />
    </clipPath>
    <clipPath
       clipPathUnits="userSpaceOnUse"
       id="clipPath913">
      <path
         inkscape:connector-curvature="0"
         d="M 61,12 H 71 V 29 H 61 Z"
         id="path911" />
    </clipPath>
    <clipPath
       clipPathUnits="userSpaceOnUse"
       id="clipPath917">
      <path
         inkscape:connector-curvature="0"
         d="M 15,28 H 116 V 54 H 15 Z"
         id="path915" />
    </clipPath>
    <clipPath
       clipPathUnits="userSpaceOnUse"
       id="clipPath921">
      <path
         inkscape:connector-curvature="0"
         d="M 20,55 H 58 V 72 H 20 Z"
         id="path919" />
    </clipPath>
    <clipPath
       clipPathUnits="userSpaceOnUse"
       id="clipPath925">
      <path
         inkscape:connector-curvature="0"
         d="M 15,53 H 116 V 85 H 15 Z"
         id="path923" />
    </clipPath>
    <clipPath
       clipPathUnits="userSpaceOnUse"
       id="clipPath929">
      <path
         inkscape:connector-curvature="0"
         d="m 15,84 h 101 v 26 H 15 Z"
         id="path927" />
    </clipPath>
    <clipPath
       clipPathUnits="userSpaceOnUse"
       id="clipPath933">
      <path
         inkscape:connector-curvature="0"
         d="M 14,9 H 116 V 111 H 14 Z"
         id="path931" />
    </clipPath>
    <clipPath
       clipPathUnits="userSpaceOnUse"
       id="clipPath1-1">
      <path
         inkscape:connector-curvature="0"
         d="m 20,10 c -5.5229,0 -10,4.4772 -10,10 v 0 130 c 0,5.5228 4.4771,10 10,10 0,0 0,0 0,0 v 0 h 310 c 5.5228,0 10,-4.4772 10,-10 v 0 -130 c 0,0 0,0 0,0 0,-5.5229 -4.4772,-10 -10,-10 0,0 0,0 0,0 H 20 Z"
         id="path18-2" />
    </clipPath>
    <clipPath
       clipPathUnits="userSpaceOnUse"
       id="clipPath2-8">
      <path
         inkscape:connector-curvature="0"
         d="m 135,12 h 82 v 17 h -82 z"
         id="path21-5" />
    </clipPath>
    <clipPath
       clipPathUnits="userSpaceOnUse"
       id="clipPath3-1">
      <path
         inkscape:connector-curvature="0"
         d="M 10,29 H 342 V 162 H 10 Z"
         id="path24-5" />
    </clipPath>
    <linearGradient
       x1="60"
       x2="60"
       y1="80"
       gradientUnits="userSpaceOnUse"
       y2="124"
       xlink:type="simple"
       xlink:actuate="onLoad"
       id="linearGradient2-7"
       xlink:show="other"
       spreadMethod="pad">
      <stop
         stop-opacity="1"
         stop-color="white"
         offset="0%"
         id="stop8-3" />
      <stop
         stop-opacity="1"
         stop-color="white"
         offset="100%"
         id="stop10-5" />
    </linearGradient>
    <clipPath
       clipPathUnits="userSpaceOnUse"
       id="clipPath4-03">
      <path
         inkscape:connector-curvature="0"
         d="m 89,80 c 0,0 0,0 0,0 H 70 c -5.5229,0 -10,4.4772 -10,10 v 0 23 c 0,5.5228 4.4771,10 10,10 0,0 0,0 0,0 v 0 h 19 c 5.5228,0 10,-4.4772 10,-10 v 0 -23 C 99,84.4771 94.5228,80 89,80 Z"
         id="path27-9" />
    </clipPath>
    <clipPath
       clipPathUnits="userSpaceOnUse"
       id="clipPath5-3">
      <path
         inkscape:connector-curvature="0"
         d="M 76,82 H 86 V 99 H 76 Z"
         id="path30-3" />
    </clipPath>
    <clipPath
       clipPathUnits="userSpaceOnUse"
       id="clipPath6-96">
      <path
         inkscape:connector-curvature="0"
         d="m 59,79 h 42 v 46 H 59 Z"
         id="path33-3" />
    </clipPath>
    <linearGradient
       x1="260"
       x2="260"
       y1="80"
       gradientUnits="userSpaceOnUse"
       y2="124"
       xlink:type="simple"
       xlink:actuate="onLoad"
       id="linearGradient3-7"
       xlink:show="other"
       spreadMethod="pad">
      <stop
         stop-opacity="1"
         stop-color="white"
         offset="0%"
         id="stop13-2" />
      <stop
         stop-opacity="1"
         stop-color="white"
         offset="100%"
         id="stop15-4" />
    </linearGradient>
    <clipPath
       clipPathUnits="userSpaceOnUse"
       id="clipPath7-48">
      <path
         inkscape:connector-curvature="0"
         d="m 289,80 c 0,0 0,0 0,0 h -19 c -5.5229,0 -10,4.4772 -10,10 v 23 c 0,5.5228 4.4772,10 10,10 0,0 0,0 0,0 v 0 h 19 c 5.5228,0 10,-4.4772 10,-10 v 0 -23 c 0,-5.5229 -4.4772,-10 -10,-10 z"
         id="path36-8" />
    </clipPath>
    <clipPath
       clipPathUnits="userSpaceOnUse"
       id="clipPath8-7">
      <path
         inkscape:connector-curvature="0"
         d="m 276,82 h 9 v 17 h -9 z"
         id="path39-0" />
    </clipPath>
    <clipPath
       clipPathUnits="userSpaceOnUse"
       id="clipPath9-0">
      <path
         inkscape:connector-curvature="0"
         d="m 259,79 h 42 v 46 h -42 z"
         id="path42-5" />
    </clipPath>
    <clipPath
       clipPathUnits="userSpaceOnUse"
       id="clipPath10-3">
      <path
         inkscape:connector-curvature="0"
         d="M 10,28 H 342 V 162 H 10 Z"
         id="path45-7" />
    </clipPath>
    <clipPath
       clipPathUnits="userSpaceOnUse"
       id="clipPath11-2">
      <path
         inkscape:connector-curvature="0"
         d="M 9,9 H 342 V 162 H 9 Z"
         id="path48-3" />
    </clipPath>
    <clipPath
       clipPathUnits="userSpaceOnUse"
       id="clipPath12">
      <path
         inkscape:connector-curvature="0"
         d="M -1,-1 H 352 V 172 H -1 Z"
         id="path51" />
    </clipPath>
    <clipPath
       clipPathUnits="userSpaceOnUse"
       id="clipPath13">
      <path
         inkscape:connector-curvature="0"
         d="m 164,79 h 6 v 17 h -6 z"
         id="path54" />
    </clipPath>
    <clipPath
       clipPathUnits="userSpaceOnUse"
       id="clipPath14">
      <path
         inkscape:connector-curvature="0"
         d="m 244,94 h 18 v 13 h -18 z"
         id="path57" />
    </clipPath>
    <clipPath
       clipPathUnits="userSpaceOnUse"
       id="clipPath975">
      <path
         inkscape:connector-curvature="0"
         d="m 244,94 h 18 v 13 h -18 z"
         id="path973" />
    </clipPath>
    <clipPath
       clipPathUnits="userSpaceOnUse"
       id="clipPath979">
      <path
         inkscape:connector-curvature="0"
         d="M -1,-1 H 352 V 172 H -1 Z"
         id="path977" />
    </clipPath>
    <clipPath
       clipPathUnits="userSpaceOnUse"
       id="clipPath983">
      <path
         inkscape:connector-curvature="0"
         d="m 164,79 h 6 v 17 h -6 z"
         id="path981" />
    </clipPath>
    <clipPath
       clipPathUnits="userSpaceOnUse"
       id="clipPath987">
      <path
         inkscape:connector-curvature="0"
         d="m 244,94 h 18 v 13 h -18 z"
         id="path985" />
    </clipPath>
    <clipPath
       clipPathUnits="userSpaceOnUse"
       id="clipPath991">
      <path
         inkscape:connector-curvature="0"
         d="m 244,94 h 18 v 13 h -18 z"
         id="path989" />
    </clipPath>
    <clipPath
       clipPathUnits="userSpaceOnUse"
       id="clipPath1013">
      <path
         inkscape:connector-curvature="0"
         d="m 20,10 c -5.5229,0 -10,4.4772 -10,10 v 0 130 c 0,5.5228 4.4771,10 10,10 0,0 0,0 0,0 v 0 h 310 c 5.5228,0 10,-4.4772 10,-10 v 0 -130 c 0,0 0,0 0,0 0,-5.5229 -4.4772,-10 -10,-10 0,0 0,0 0,0 z"
         id="path1011" />
    </clipPath>
    <clipPath
       clipPathUnits="userSpaceOnUse"
       id="clipPath1017">
      <path
         inkscape:connector-curvature="0"
         d="m 135,12 h 82 v 17 h -82 z"
         id="path1015" />
    </clipPath>
    <clipPath
       clipPathUnits="userSpaceOnUse"
       id="clipPath1021">
      <path
         inkscape:connector-curvature="0"
         d="M 10,29 H 342 V 162 H 10 Z"
         id="path1019" />
    </clipPath>
    <clipPath
       clipPathUnits="userSpaceOnUse"
       id="clipPath1025">
      <path
         inkscape:connector-curvature="0"
         d="m 89,80 c 0,0 0,0 0,0 H 70 c -5.5229,0 -10,4.4772 -10,10 v 0 23 c 0,5.5228 4.4771,10 10,10 0,0 0,0 0,0 v 0 h 19 c 5.5228,0 10,-4.4772 10,-10 v 0 -23 C 99,84.4771 94.5228,80 89,80 Z"
         id="path1023" />
    </clipPath>
    <clipPath
       clipPathUnits="userSpaceOnUse"
       id="clipPath1029">
      <path
         inkscape:connector-curvature="0"
         d="M 76,82 H 86 V 99 H 76 Z"
         id="path1027" />
    </clipPath>
    <clipPath
       clipPathUnits="userSpaceOnUse"
       id="clipPath1033">
      <path
         inkscape:connector-curvature="0"
         d="m 59,79 h 42 v 46 H 59 Z"
         id="path1031" />
    </clipPath>
    <clipPath
       clipPathUnits="userSpaceOnUse"
       id="clipPath1037">
      <path
         inkscape:connector-curvature="0"
         d="m 289,80 c 0,0 0,0 0,0 h -19 c -5.5229,0 -10,4.4772 -10,10 v 23 c 0,5.5228 4.4772,10 10,10 0,0 0,0 0,0 v 0 h 19 c 5.5228,0 10,-4.4772 10,-10 v 0 -23 c 0,-5.5229 -4.4772,-10 -10,-10 z"
         id="path1035" />
    </clipPath>
    <clipPath
       clipPathUnits="userSpaceOnUse"
       id="clipPath1041">
      <path
         inkscape:connector-curvature="0"
         d="m 276,82 h 9 v 17 h -9 z"
         id="path1039" />
    </clipPath>
    <clipPath
       clipPathUnits="userSpaceOnUse"
       id="clipPath1045">
      <path
         inkscape:connector-curvature="0"
         d="m 259,79 h 42 v 46 h -42 z"
         id="path1043" />
    </clipPath>
    <clipPath
       clipPathUnits="userSpaceOnUse"
       id="clipPath1049">
      <path
         inkscape:connector-curvature="0"
         d="M 10,28 H 342 V 162 H 10 Z"
         id="path1047" />
    </clipPath>
    <clipPath
       clipPathUnits="userSpaceOnUse"
       id="clipPath1053">
      <path
         inkscape:connector-curvature="0"
         d="M 9,9 H 342 V 162 H 9 Z"
         id="path1051" />
    </clipPath>
    <clipPath
       clipPathUnits="userSpaceOnUse"
       id="clipPath1057">
      <path
         inkscape:connector-curvature="0"
         d="M -1,-1 H 352 V 172 H -1 Z"
         id="path1055" />
    </clipPath>
    <clipPath
       clipPathUnits="userSpaceOnUse"
       id="clipPath1061">
      <path
         inkscape:connector-curvature="0"
         d="m 164,79 h 6 v 17 h -6 z"
         id="path1059" />
    </clipPath>
    <clipPath
       clipPathUnits="userSpaceOnUse"
       id="clipPath1065">
      <path
         inkscape:connector-curvature="0"
         d="m 244,94 h 18 v 13 h -18 z"
         id="path1063" />
    </clipPath>
    <clipPath
       clipPathUnits="userSpaceOnUse"
       id="clipPath1-4">
      <path
         inkscape:connector-curvature="0"
         d="m 20,10 c -5.5229,0 -10,4.4772 -10,10 v 0 130 c 0,5.5228 4.4771,10 10,10 0,0 0,0 0,0 v 0 h 310 c 5.5228,0 10,-4.4772 10,-10 v 0 -130 c 0,0 0,0 0,0 0,-5.5229 -4.4772,-10 -10,-10 0,0 0,0 0,0 H 20 Z"
         id="path18-1" />
    </clipPath>
    <clipPath
       clipPathUnits="userSpaceOnUse"
       id="clipPath2-6">
      <path
         inkscape:connector-curvature="0"
         d="m 135,12 h 82 v 17 h -82 z"
         id="path21-9" />
    </clipPath>
    <clipPath
       clipPathUnits="userSpaceOnUse"
       id="clipPath3-3">
      <path
         inkscape:connector-curvature="0"
         d="M 10,29 H 342 V 162 H 10 Z"
         id="path24-8" />
    </clipPath>
    <linearGradient
       x1="60"
       x2="60"
       y1="80"
       gradientUnits="userSpaceOnUse"
       y2="124"
       xlink:type="simple"
       xlink:actuate="onLoad"
       id="linearGradient2-1"
       xlink:show="other"
       spreadMethod="pad">
      <stop
         stop-opacity="1"
         stop-color="white"
         offset="0%"
         id="stop8-2" />
      <stop
         stop-opacity="1"
         stop-color="white"
         offset="100%"
         id="stop10-9" />
    </linearGradient>
    <clipPath
       clipPathUnits="userSpaceOnUse"
       id="clipPath4-7">
      <path
         inkscape:connector-curvature="0"
         d="m 89,80 c 0,0 0,0 0,0 H 70 c -5.5229,0 -10,4.4772 -10,10 v 0 23 c 0,5.5228 4.4771,10 10,10 0,0 0,0 0,0 v 0 h 19 c 5.5228,0 10,-4.4772 10,-10 v 0 -23 C 99,84.4771 94.5228,80 89,80 Z"
         id="path27-1" />
    </clipPath>
    <clipPath
       clipPathUnits="userSpaceOnUse"
       id="clipPath5-82">
      <path
         inkscape:connector-curvature="0"
         d="M 76,82 H 86 V 99 H 76 Z"
         id="path30-0" />
    </clipPath>
    <clipPath
       clipPathUnits="userSpaceOnUse"
       id="clipPath6-1">
      <path
         inkscape:connector-curvature="0"
         d="m 59,79 h 42 v 46 H 59 Z"
         id="path33-6" />
    </clipPath>
    <linearGradient
       x1="260"
       x2="260"
       y1="80"
       gradientUnits="userSpaceOnUse"
       y2="124"
       xlink:type="simple"
       xlink:actuate="onLoad"
       id="linearGradient3-9"
       xlink:show="other"
       spreadMethod="pad">
      <stop
         stop-opacity="1"
         stop-color="white"
         offset="0%"
         id="stop13-22" />
      <stop
         stop-opacity="1"
         stop-color="white"
         offset="100%"
         id="stop15-9" />
    </linearGradient>
    <clipPath
       clipPathUnits="userSpaceOnUse"
       id="clipPath7-7">
      <path
         inkscape:connector-curvature="0"
         d="m 289,80 c 0,0 0,0 0,0 h -19 c -5.5229,0 -10,4.4772 -10,10 v 23 c 0,5.5228 4.4772,10 10,10 0,0 0,0 0,0 v 0 h 19 c 5.5228,0 10,-4.4772 10,-10 v 0 -23 c 0,-5.5229 -4.4772,-10 -10,-10 z"
         id="path36-7" />
    </clipPath>
    <clipPath
       clipPathUnits="userSpaceOnUse"
       id="clipPath8-5">
      <path
         inkscape:connector-curvature="0"
         d="m 276,82 h 9 v 17 h -9 z"
         id="path39-6" />
    </clipPath>
    <clipPath
       clipPathUnits="userSpaceOnUse"
       id="clipPath9-4">
      <path
         inkscape:connector-curvature="0"
         d="m 259,79 h 42 v 46 h -42 z"
         id="path42-4" />
    </clipPath>
    <clipPath
       clipPathUnits="userSpaceOnUse"
       id="clipPath10-4">
      <path
         inkscape:connector-curvature="0"
         d="M 10,28 H 342 V 162 H 10 Z"
         id="path45-3" />
    </clipPath>
    <clipPath
       clipPathUnits="userSpaceOnUse"
       id="clipPath11-5">
      <path
         inkscape:connector-curvature="0"
         d="M 9,9 H 342 V 162 H 9 Z"
         id="path48-4" />
    </clipPath>
    <clipPath
       clipPathUnits="userSpaceOnUse"
       id="clipPath12-9">
      <path
         inkscape:connector-curvature="0"
         d="M -1,-1 H 352 V 172 H -1 Z"
         id="path51-3" />
    </clipPath>
    <clipPath
       clipPathUnits="userSpaceOnUse"
       id="clipPath13-8">
      <path
         inkscape:connector-curvature="0"
         d="m 159,79 h 17 v 17 h -17 z"
         id="path54-0" />
    </clipPath>
    <clipPath
       clipPathUnits="userSpaceOnUse"
       id="clipPath14-2">
      <path
         inkscape:connector-curvature="0"
         d="m 244,94 h 18 v 13 h -18 z"
         id="path57-2" />
    </clipPath>
    <clipPath
       clipPathUnits="userSpaceOnUse"
       id="clipPath975-6">
      <path
         inkscape:connector-curvature="0"
         d="m 244,94 h 18 v 13 h -18 z"
         id="path973-6" />
    </clipPath>
    <clipPath
       clipPathUnits="userSpaceOnUse"
       id="clipPath979-3">
      <path
         inkscape:connector-curvature="0"
         d="M -1,-1 H 352 V 172 H -1 Z"
         id="path977-2" />
    </clipPath>
    <clipPath
       clipPathUnits="userSpaceOnUse"
       id="clipPath983-2">
      <path
         inkscape:connector-curvature="0"
         d="m 159,79 h 17 v 17 h -17 z"
         id="path981-8" />
    </clipPath>
    <clipPath
       clipPathUnits="userSpaceOnUse"
       id="clipPath987-1">
      <path
         inkscape:connector-curvature="0"
         d="m 244,94 h 18 v 13 h -18 z"
         id="path985-6" />
    </clipPath>
    <clipPath
       clipPathUnits="userSpaceOnUse"
       id="clipPath991-6">
      <path
         inkscape:connector-curvature="0"
         d="m 244,94 h 18 v 13 h -18 z"
         id="path989-5" />
    </clipPath>
    <linearGradient
       spreadMethod="pad"
       y2="161"
       x2="10"
       y1="10"
       x1="10"
       gradientUnits="userSpaceOnUse"
       id="linearGradient1090-9"
       xlink:href="#linearGradient1-0"
       inkscape:collect="always" />
    <clipPath
       clipPathUnits="userSpaceOnUse"
       id="clipPath1013-5">
      <path
         inkscape:connector-curvature="0"
         d="m 20,10 c -5.5229,0 -10,4.4772 -10,10 v 0 130 c 0,5.5228 4.4771,10 10,10 0,0 0,0 0,0 v 0 h 310 c 5.5228,0 10,-4.4772 10,-10 v 0 -130 c 0,0 0,0 0,0 0,-5.5229 -4.4772,-10 -10,-10 0,0 0,0 0,0 z"
         id="path1011-9" />
    </clipPath>
    <clipPath
       clipPathUnits="userSpaceOnUse"
       id="clipPath1017-2">
      <path
         inkscape:connector-curvature="0"
         d="m 135,12 h 82 v 17 h -82 z"
         id="path1015-4" />
    </clipPath>
    <clipPath
       clipPathUnits="userSpaceOnUse"
       id="clipPath1021-9">
      <path
         inkscape:connector-curvature="0"
         d="M 10,29 H 342 V 162 H 10 Z"
         id="path1019-6" />
    </clipPath>
    <clipPath
       clipPathUnits="userSpaceOnUse"
       id="clipPath1025-2">
      <path
         inkscape:connector-curvature="0"
         d="m 89,80 c 0,0 0,0 0,0 H 70 c -5.5229,0 -10,4.4772 -10,10 v 0 23 c 0,5.5228 4.4771,10 10,10 0,0 0,0 0,0 v 0 h 19 c 5.5228,0 10,-4.4772 10,-10 v 0 -23 C 99,84.4771 94.5228,80 89,80 Z"
         id="path1023-1" />
    </clipPath>
    <clipPath
       clipPathUnits="userSpaceOnUse"
       id="clipPath1029-6">
      <path
         inkscape:connector-curvature="0"
         d="M 76,82 H 86 V 99 H 76 Z"
         id="path1027-0" />
    </clipPath>
    <clipPath
       clipPathUnits="userSpaceOnUse"
       id="clipPath1033-7">
      <path
         inkscape:connector-curvature="0"
         d="m 59,79 h 42 v 46 H 59 Z"
         id="path1031-0" />
    </clipPath>
    <clipPath
       clipPathUnits="userSpaceOnUse"
       id="clipPath1037-6">
      <path
         inkscape:connector-curvature="0"
         d="m 289,80 c 0,0 0,0 0,0 h -19 c -5.5229,0 -10,4.4772 -10,10 v 23 c 0,5.5228 4.4772,10 10,10 0,0 0,0 0,0 v 0 h 19 c 5.5228,0 10,-4.4772 10,-10 v 0 -23 c 0,-5.5229 -4.4772,-10 -10,-10 z"
         id="path1035-3" />
    </clipPath>
    <clipPath
       clipPathUnits="userSpaceOnUse"
       id="clipPath1041-6">
      <path
         inkscape:connector-curvature="0"
         d="m 276,82 h 9 v 17 h -9 z"
         id="path1039-1" />
    </clipPath>
    <clipPath
       clipPathUnits="userSpaceOnUse"
       id="clipPath1045-1">
      <path
         inkscape:connector-curvature="0"
         d="m 259,79 h 42 v 46 h -42 z"
         id="path1043-7" />
    </clipPath>
    <clipPath
       clipPathUnits="userSpaceOnUse"
       id="clipPath1049-5">
      <path
         inkscape:connector-curvature="0"
         d="M 10,28 H 342 V 162 H 10 Z"
         id="path1047-8" />
    </clipPath>
    <clipPath
       clipPathUnits="userSpaceOnUse"
       id="clipPath1053-4">
      <path
         inkscape:connector-curvature="0"
         d="M 9,9 H 342 V 162 H 9 Z"
         id="path1051-2" />
    </clipPath>
    <clipPath
       clipPathUnits="userSpaceOnUse"
       id="clipPath1057-8">
      <path
         inkscape:connector-curvature="0"
         d="M -1,-1 H 352 V 172 H -1 Z"
         id="path1055-0" />
    </clipPath>
    <clipPath
       clipPathUnits="userSpaceOnUse"
       id="clipPath1061-1">
      <path
         inkscape:connector-curvature="0"
         d="m 159,79 h 17 v 17 h -17 z"
         id="path1059-7" />
    </clipPath>
    <clipPath
       clipPathUnits="userSpaceOnUse"
       id="clipPath1065-5">
      <path
         inkscape:connector-curvature="0"
         d="m 244,94 h 18 v 13 h -18 z"
         id="path1063-7" />
    </clipPath>
    <linearGradient
       inkscape:collect="always"
       xlink:href="#linearGradient1-0"
       id="linearGradient1806"
       gradientUnits="userSpaceOnUse"
       x1="10"
       y1="10"
       x2="10"
       y2="161"
       spreadMethod="pad" />
  </defs>
  <g
     id="g48"
     transform="translate(-14.45,16.275002)">
    <defs
       id="defs1">
      <linearGradient
         x1="15"
         x2="15"
         y1="10"
         gradientUnits="userSpaceOnUse"
         y2="110"
         xlink:type="simple"
         xlink:actuate="onLoad"
         id="linearGradient1"
         xlink:show="other"
         spreadMethod="pad">
        <stop
           stop-opacity="1"
           stop-color="white"
           offset="0%"
           id="stop3" />
        <stop
           stop-opacity="1"
           stop-color="white"
           offset="100%"
           id="stop5" />
      </linearGradient>
      <clipPath
         clipPathUnits="userSpaceOnUse"
         id="clipPath1">
        <path
           d="m 15,10 v 99 h 99 V 10 Z"
           id="path8"
           inkscape:connector-curvature="0" />
      </clipPath>
      <clipPath
         clipPathUnits="userSpaceOnUse"
         id="clipPath2">
        <path
           d="M 61,12 H 71 V 29 H 61 Z"
           id="path11"
           inkscape:connector-curvature="0" />
      </clipPath>
      <clipPath
         clipPathUnits="userSpaceOnUse"
         id="clipPath3">
        <path
           d="M 15,28 H 116 V 54 H 15 Z"
           id="path14"
           inkscape:connector-curvature="0" />
      </clipPath>
      <clipPath
         clipPathUnits="userSpaceOnUse"
         id="clipPath4">
        <path
           d="M 20,55 H 58 V 72 H 20 Z"
           id="path17"
           inkscape:connector-curvature="0" />
      </clipPath>
      <clipPath
         clipPathUnits="userSpaceOnUse"
         id="clipPath5">
        <path
           d="M 15,53 H 116 V 85 H 15 Z"
           id="path20"
           inkscape:connector-curvature="0" />
      </clipPath>
      <clipPath
         clipPathUnits="userSpaceOnUse"
         id="clipPath6">
        <path
           d="m 15,84 h 101 v 26 H 15 Z"
           id="path23"
           inkscape:connector-curvature="0" />
      </clipPath>
      <clipPath
         clipPathUnits="userSpaceOnUse"
         id="clipPath7">
        <path
           d="M 14,9 H 116 V 111 H 14 Z"
           id="path26"
           inkscape:connector-curvature="0" />
      </clipPath>
    </defs>
    <g
       stroke-miterlimit="0"
       id="g34"
       style="font-family:'Segoe UI';fill:url(#linearGradient1088);stroke:url(#linearGradient1090);stroke-width:0;stroke-linejoin:round;stroke-miterlimit:0">
      <rect
         x="15"
         y="10"
         clip-path="url(#clipPath1)"
         width="100"
         height="100"
         id="rect30"
         style="fill:url(#linearGradient1086);stroke:none" />
      <text
         x="62"
         y="26"
         clip-path="url(#clipPath2)"
         xml:space="preserve"
         id="text32"
         style="fill:#000000;stroke:none">A</text>
    </g>
    <g
       id="g46"
       style="font-family:'Segoe UI';stroke-width:1.10000002;stroke-linecap:butt">
      <line
         clip-path="url(#clipPath3)"
         x1="15"
         x2="115"
         y1="29"
         y2="29"
         id="line36"
         style="fill:none" />
      <text
         xml:space="preserve"
         x="21"
         y="69"
         clip-path="url(#clipPath4)"
         id="text38"
         style="stroke:none"> + op()</text>
      <line
         clip-path="url(#clipPath5)"
         x1="15"
         x2="115"
         y1="54"
         y2="54"
         id="line40"
         style="fill:none" />
      <line
         clip-path="url(#clipPath6)"
         x1="15"
         x2="115"
         y1="85"
         y2="85"
         id="line42"
         style="fill:none" />
      <rect
         x="15"
         y="10"
         clip-path="url(#clipPath7)"
         width="99"
         rx="0"
         ry="0"
         height="99"
         id="rect44"
         style="fill:none" />
    </g>
  </g>
  <path
     style="fill:none;stroke:#000000;stroke-width:1px;stroke-linecap:butt;stroke-linejoin:miter;stroke-opacity:1"
     d="M 114.16017,1.029237 V 151.53771"
     id="path1084"
     inkscape:connector-curvature="0" />
  <g
     transform="translate(121.01144,-9.4499985)"
     id="g103">
    <defs
       id="defs1-8">
      <linearGradient
         x1="10"
         x2="10"
         y1="10"
         gradientUnits="userSpaceOnUse"
         y2="161"
         xlink:type="simple"
         xlink:actuate="onLoad"
         id="RESERVED_FOR_INKSCAPE_DUPLICATE_DEF_000000000"
         xlink:show="other"
         spreadMethod="pad">
        <stop
           stop-opacity="1"
           stop-color="white"
           offset="0%"
           id="stop993" />
        <stop
           stop-opacity="1"
           stop-color="white"
           offset="100%"
           id="stop995" />
      </linearGradient>
      <linearGradient
         x1="60"
         x2="60"
         y1="80"
         gradientUnits="userSpaceOnUse"
         y2="124"
         xlink:type="simple"
         xlink:actuate="onLoad"
         id="RESERVED_FOR_INKSCAPE_DUPLICATE_DEF_000000001"
         xlink:show="other"
         spreadMethod="pad">
        <stop
           stop-opacity="1"
           stop-color="white"
           offset="0%"
           id="stop999" />
        <stop
           stop-opacity="1"
           stop-color="white"
           offset="100%"
           id="stop1001" />
      </linearGradient>
      <linearGradient
         x1="260"
         x2="260"
         y1="80"
         gradientUnits="userSpaceOnUse"
         y2="124"
         xlink:type="simple"
         xlink:actuate="onLoad"
         id="RESERVED_FOR_INKSCAPE_DUPLICATE_DEF_000000002"
         xlink:show="other"
         spreadMethod="pad">
        <stop
           stop-opacity="1"
           stop-color="white"
           offset="0%"
           id="stop1005" />
        <stop
           stop-opacity="1"
           stop-color="white"
           offset="100%"
           id="stop1007" />
      </linearGradient>
      <clipPath
         clipPathUnits="userSpaceOnUse"
         id="clipPath1729">
        <path
           inkscape:connector-curvature="0"
           d="m 20,10 c -5.5229,0 -10,4.4772 -10,10 v 0 130 c 0,5.5228 4.4771,10 10,10 0,0 0,0 0,0 v 0 h 310 c 5.5228,0 10,-4.4772 10,-10 v 0 -130 c 0,0 0,0 0,0 0,-5.5229 -4.4772,-10 -10,-10 0,0 0,0 0,0 z"
           id="path1727" />
      </clipPath>
      <clipPath
         clipPathUnits="userSpaceOnUse"
         id="clipPath1733">
        <path
           inkscape:connector-curvature="0"
           d="m 135,12 h 82 v 17 h -82 z"
           id="path1731" />
      </clipPath>
      <clipPath
         clipPathUnits="userSpaceOnUse"
         id="clipPath1737">
        <path
           inkscape:connector-curvature="0"
           d="M 10,29 H 342 V 162 H 10 Z"
           id="path1735" />
      </clipPath>
      <clipPath
         clipPathUnits="userSpaceOnUse"
         id="clipPath1741">
        <path
           inkscape:connector-curvature="0"
           d="m 89,80 c 0,0 0,0 0,0 H 70 c -5.5229,0 -10,4.4772 -10,10 v 0 23 c 0,5.5228 4.4771,10 10,10 0,0 0,0 0,0 v 0 h 19 c 5.5228,0 10,-4.4772 10,-10 v 0 -23 C 99,84.4771 94.5228,80 89,80 Z"
           id="path1739" />
      </clipPath>
      <clipPath
         clipPathUnits="userSpaceOnUse"
         id="clipPath1745">
        <path
           inkscape:connector-curvature="0"
           d="M 76,82 H 86 V 99 H 76 Z"
           id="path1743" />
      </clipPath>
      <clipPath
         clipPathUnits="userSpaceOnUse"
         id="clipPath1749">
        <path
           inkscape:connector-curvature="0"
           d="m 59,79 h 42 v 46 H 59 Z"
           id="path1747" />
      </clipPath>
      <clipPath
         clipPathUnits="userSpaceOnUse"
         id="clipPath1753">
        <path
           inkscape:connector-curvature="0"
           d="m 289,80 c 0,0 0,0 0,0 h -19 c -5.5229,0 -10,4.4772 -10,10 v 23 c 0,5.5228 4.4772,10 10,10 0,0 0,0 0,0 v 0 h 19 c 5.5228,0 10,-4.4772 10,-10 v 0 -23 c 0,-5.5229 -4.4772,-10 -10,-10 z"
           id="path1751" />
      </clipPath>
      <clipPath
         clipPathUnits="userSpaceOnUse"
         id="clipPath1757">
        <path
           inkscape:connector-curvature="0"
           d="m 276,82 h 9 v 17 h -9 z"
           id="path1755" />
      </clipPath>
      <clipPath
         clipPathUnits="userSpaceOnUse"
         id="clipPath1761">
        <path
           inkscape:connector-curvature="0"
           d="m 259,79 h 42 v 46 h -42 z"
           id="path1759" />
      </clipPath>
      <clipPath
         clipPathUnits="userSpaceOnUse"
         id="clipPath1765">
        <path
           inkscape:connector-curvature="0"
           d="M 10,28 H 342 V 162 H 10 Z"
           id="path1763" />
      </clipPath>
      <clipPath
         clipPathUnits="userSpaceOnUse"
         id="clipPath1769">
        <path
           inkscape:connector-curvature="0"
           d="M 9,9 H 342 V 162 H 9 Z"
           id="path1767" />
      </clipPath>
      <clipPath
         clipPathUnits="userSpaceOnUse"
         id="clipPath1773">
        <path
           inkscape:connector-curvature="0"
           d="M -1,-1 H 352 V 172 H -1 Z"
           id="path1771" />
      </clipPath>
      <clipPath
         clipPathUnits="userSpaceOnUse"
         id="clipPath1777">
        <path
           inkscape:connector-curvature="0"
           d="m 159,79 h 17 v 17 h -17 z"
           id="path1775" />
      </clipPath>
      <clipPath
         clipPathUnits="userSpaceOnUse"
         id="clipPath1781">
        <path
           inkscape:connector-curvature="0"
           d="m 244,94 h 18 v 13 h -18 z"
           id="path1779" />
      </clipPath>
    </defs>
    <g
       style="font-family:'Segoe UI';fill:url(#linearGradient1090-9);stroke:url(#linearGradient1090-9);stroke-width:0;stroke-linejoin:round;stroke-miterlimit:0"
       stroke-miterlimit="0"
       id="g71">
      <rect
         style="fill:url(#linearGradient1806);stroke:none"
         x="10"
         y="10"
         clip-path="url(#clipPath1-4)"
         width="331"
         height="151"
         id="rect61" />
      <text
         style="fill:#000000;stroke:none"
         x="136"
         y="26"
         clip-path="url(#clipPath2-6)"
         xml:space="preserve"
         id="text63">StateMachineA</text>
      <rect
         style="fill:#ffffff;stroke:none"
         x="11"
         y="30"
         clip-path="url(#clipPath3-3)"
         width="331"
         height="131"
         id="rect65" />
      <rect
         style="fill:url(#linearGradient2-1);stroke:none"
         x="60"
         y="80"
         clip-path="url(#clipPath4-7)"
         width="40"
         height="44"
         id="rect67" />
      <text
         style="fill:#000000;stroke:none"
         x="77"
         y="96"
         clip-path="url(#clipPath5-82)"
         xml:space="preserve"
         id="text69">A</text>
    </g>
    <g
       style="font-family:'Segoe UI';stroke-width:1.10000002;stroke-linecap:butt"
       id="g101">
      <rect
         style="fill:none"
         x="60"
         y="80"
         clip-path="url(#clipPath6-1)"
         width="39"
         rx="10"
         ry="10"
         height="43"
         id="rect73" />
      <rect
         style="fill:url(#linearGradient3-9);stroke:none"
         x="260"
         y="80"
         clip-path="url(#clipPath7-7)"
         width="40"
         height="44"
         id="rect75" />
      <text
         style="stroke:none"
         xml:space="preserve"
         x="277"
         y="96"
         clip-path="url(#clipPath8-5)"
         id="text77">B</text>
      <rect
         style="fill:none"
         x="260"
         y="80"
         clip-path="url(#clipPath9-4)"
         width="39"
         rx="10"
         ry="10"
         height="43"
         id="rect79" />
      <line
         style="fill:none"
         clip-path="url(#clipPath10-4)"
         x1="11"
         x2="342"
         y1="29"
         y2="29"
         id="line81" />
      <rect
         style="fill:none"
         x="10"
         y="10"
         clip-path="url(#clipPath11-5)"
         width="330"
         rx="10"
         ry="10"
         height="150"
         id="rect83" />
      <line
         style="fill:none;text-rendering:optimizeLegibility"
         clip-path="url(#clipPath12-9)"
         x1="100"
         x2="260"
         y1="100"
         y2="100"
         id="line85" />
      <text
         style="stroke:none;text-rendering:optimizeLegibility"
         x="160"
         y="93"
         clip-path="url(#clipPath13-8)"
         xml:space="preserve"
         id="text87">op</text>
      <line
         style="fill:none;text-rendering:optimizeLegibility"
         clip-path="url(#clipPath14-2)"
         x1="245"
         x2="260"
         y1="105"
         y2="100"
         id="line89" />
      <line
         style="fill:none;text-rendering:optimizeLegibility"
         clip-path="url(#clipPath14-2)"
         x1="260"
         x2="245"
         y1="100"
         y2="95"
         id="line91" />
      <line
         style="fill:none;text-rendering:optimizeLegibility"
         clip-path="url(#clipPath12-9)"
         x1="100"
         x2="260"
         y1="100"
         y2="100"
         id="line93" />
      <text
         style="stroke:none;text-rendering:optimizeLegibility;fill:#008000;"
         x="160"
         y="93"
         clip-path="url(#clipPath13-8)"
         xml:space="preserve"
         id="text95">op</text>
      <line
         style="fill:none;text-rendering:optimizeLegibility"
         clip-path="url(#clipPath14-2)"
         x1="245"
         x2="260"
         y1="105"
         y2="100"
         id="line97" />
      <line
         style="fill:none;text-rendering:optimizeLegibility"
         clip-path="url(#clipPath14-2)"
         x1="260"
         x2="245"
         y1="100"
         y2="95"
         id="line99" />
    </g>
  </g>
</svg>
