<?xml version="1.0" encoding="UTF-8"?><svg xmlns="http://www.w3.org/2000/svg" xmlns:xlink="http://www.w3.org/1999/xlink" stroke-dasharray="none" shape-rendering="auto" font-family="'Dialog'" width="305" text-rendering="auto" fill-opacity="1" contentScriptType="text/ecmascript" color-interpolation="auto" color-rendering="auto" preserveAspectRatio="xMidYMid meet" font-size="12" viewBox="0 0 305 120" fill="black" stroke="black" image-rendering="auto" stroke-miterlimit="10" zoomAndPan="magnify" version="1.0" stroke-linecap="square" stroke-linejoin="miter" contentStyleType="text/css" font-style="normal" height="120" stroke-width="1" stroke-dashoffset="0" font-weight="normal" stroke-opacity="1">
<!--Generated by the Batik Graphics2D SVG Generator-->
<defs id="genericDefs"/>
<g>
<defs id="defs1">
<linearGradient x1="15" x2="15" y1="10" gradientUnits="userSpaceOnUse" y2="110" xlink:type="simple" xlink:actuate="onLoad" id="linearGradient1" xlink:show="other" spreadMethod="pad">
<stop stop-opacity="1" stop-color="white" offset="0%"/>
<stop stop-opacity="1" stop-color="white" offset="100%"/>
</linearGradient>
<linearGradient x1="195" x2="195" y1="10" gradientUnits="userSpaceOnUse" y2="110" xlink:type="simple" xlink:actuate="onLoad" id="linearGradient2" xlink:show="other" spreadMethod="pad">
<stop stop-opacity="1" stop-color="white" offset="0%"/>
<stop stop-opacity="1" stop-color="white" offset="100%"/>
</linearGradient>
<clipPath clipPathUnits="userSpaceOnUse" id="clipPath1">
<path d="M15 10 L15 109 L114 109 L114 10 Z"/>
</clipPath>
<clipPath clipPathUnits="userSpaceOnUse" id="clipPath2">
<path d="M61 12 L71 12 L71 29 L61 29 L61 12 Z"/>
</clipPath>
<clipPath clipPathUnits="userSpaceOnUse" id="clipPath3">
<path d="M15 28 L116 28 L116 56 L15 56 L15 28 Z"/>
</clipPath>
<clipPath clipPathUnits="userSpaceOnUse" id="clipPath4">
<path d="M15 55 L116 55 L116 83 L15 83 L15 55 Z"/>
</clipPath>
<clipPath clipPathUnits="userSpaceOnUse" id="clipPath5">
<path d="M15 82 L116 82 L116 110 L15 110 L15 82 Z"/>
</clipPath>
<clipPath clipPathUnits="userSpaceOnUse" id="clipPath6">
<path d="M14 9 L116 9 L116 111 L14 111 L14 9 Z"/>
</clipPath>
<clipPath clipPathUnits="userSpaceOnUse" id="clipPath7">
<path d="M195 10 L195 109 L294 109 L294 10 Z"/>
</clipPath>
<clipPath clipPathUnits="userSpaceOnUse" id="clipPath8">
<path d="M241 12 L250 12 L250 29 L241 29 L241 12 Z"/>
</clipPath>
<clipPath clipPathUnits="userSpaceOnUse" id="clipPath9">
<path d="M195 28 L296 28 L296 56 L195 56 L195 28 Z"/>
</clipPath>
<clipPath clipPathUnits="userSpaceOnUse" id="clipPath10">
<path d="M195 55 L296 55 L296 83 L195 83 L195 55 Z"/>
</clipPath>
<clipPath clipPathUnits="userSpaceOnUse" id="clipPath11">
<path d="M195 82 L296 82 L296 110 L195 110 L195 82 Z"/>
</clipPath>
<clipPath clipPathUnits="userSpaceOnUse" id="clipPath12">
<path d="M194 9 L296 9 L296 111 L194 111 L194 9 Z"/>
</clipPath>
<clipPath clipPathUnits="userSpaceOnUse" id="clipPath13">
<path d="M-1 -1 L306 -1 L306 121 L-1 121 L-1 -1 Z"/>
</clipPath>
<clipPath clipPathUnits="userSpaceOnUse" id="clipPath14">
<path d="M184 61 L197 61 L197 80 L184 80 L184 61 Z"/>
</clipPath>
</defs>
<g fill="url(#linearGradient1)" font-family="'Segoe UI'" stroke-linejoin="round" stroke="url(#linearGradient1)" stroke-width="0" stroke-miterlimit="0">
<rect x="15" y="10" clip-path="url(#clipPath1)" width="100" height="100" stroke="none"/>
<text x="62" y="26" clip-path="url(#clipPath2)" fill="black" stroke="none" xml:space="preserve">A</text>
</g>
<g stroke-width="1.1" font-family="'Segoe UI'" stroke-linecap="butt">
<line clip-path="url(#clipPath3)" fill="none" x1="15" x2="115" y1="29" y2="29"/>
<line clip-path="url(#clipPath4)" fill="none" x1="15" x2="115" y1="56" y2="56"/>
<line clip-path="url(#clipPath5)" fill="none" x1="15" x2="115" y1="83" y2="83"/>
<rect x="15" y="10" clip-path="url(#clipPath6)" fill="none" width="99" rx="0" ry="0" height="99"/>
<rect x="195" y="10" clip-path="url(#clipPath7)" fill="url(#linearGradient2)" width="100" height="100" stroke="none"/>
<text xml:space="preserve" x="242" y="26" clip-path="url(#clipPath8)" stroke="none">B</text>
<line clip-path="url(#clipPath9)" fill="none" x1="195" x2="295" y1="29" y2="29"/>
<line clip-path="url(#clipPath10)" fill="none" x1="195" x2="295" y1="56" y2="56"/>
<line clip-path="url(#clipPath11)" fill="none" x1="195" x2="295" y1="83" y2="83"/>
<rect x="195" y="10" clip-path="url(#clipPath12)" fill="none" width="99" rx="0" ry="0" height="99"/>
<line clip-path="url(#clipPath13)" fill="none" text-rendering="optimizeLegibility" x1="115" x2="195" y1="70" y2="70"/>
<polygon fill="white" text-rendering="optimizeLegibility" clip-path="url(#clipPath14)" points=" 195 70 185 78 185 62" stroke="none"/>
<polygon text-rendering="optimizeLegibility" fill="none" clip-path="url(#clipPath14)" points=" 195 70 185 78 185 62"/>
</g>
</g>
</svg>
